<svg data-name="Calque 1" xmlns="http://www.w3.org/2000/svg" viewBox="0 0 1076.58 345.52"><path d="M373.32 188.42a29.54 29.54 0 009.72 5.63 33.12 33.12 0 0011.64 2.24 24.12 24.12 0 008.52-1.29 4.88 4.88 0 003.37-5 5.07 5.07 0 00-.72-2.65 6.8 6.8 0 00-2.65-2.25 33.39 33.39 0 00-5.38-2.17c-2.31-.75-5.23-1.6-8.76-2.57a58.27 58.27 0 01-8.59-3 31 31 0 01-7.55-4.58 20.87 20.87 0 01-5.3-6.59 20.61 20.61 0 01.4-18.55 23.44 23.44 0 016.66-7.39 31.77 31.77 0 0110.12-4.82 45.65 45.65 0 0112.61-1.68 59.13 59.13 0 0116.87 2.25 48 48 0 0113.33 6.35l-9.79 15.26a50.07 50.07 0 00-8.44-4.34 28.23 28.23 0 00-10.68-1.92c-3.53 0-6.11.51-7.71 1.52a4.66 4.66 0 00-2.41 4.1q0 3.69 5 5.46t13.49 4q11.56 3.21 16.79 8.83t5.22 14.94a19.89 19.89 0 01-2.83 10.8 23.43 23.43 0 01-7.55 7.47 35.57 35.57 0 01-10.76 4.42 52.76 52.76 0 01-12.29 1.45 65.85 65.85 0 01-19.12-2.73 34.32 34.32 0 01-14.62-8.36zm69.39-52.04h23.14v43.37q0 6.42 3.13 10.12t9.23 3.69a13.84 13.84 0 006.27-1.36 14.62 14.62 0 007.55-8.92 20.71 20.71 0 001-6.26v-40.64h23v75.34H493.8l-.65-8a28 28 0 01-9.71 7.15 29.55 29.55 0 01-12.61 2.81q-13 0-20.57-7.71t-7.55-22.81zm90.44 0h22.17c.21 1.39.37 2.75.48 4.09s.21 2.71.32 4.1a23.93 23.93 0 019.48-7.15 30.17 30.17 0 0112-2.49 30.39 30.39 0 0124.9 11.81 37.49 37.49 0 016.26 12.37 50 50 0 012.09 14.37 43.33 43.33 0 01-3.53 18.16 37.62 37.62 0 01-9.16 12.69 37 37 0 01-12.69 7.39 43.28 43.28 0 01-14 2.41 35 35 0 01-9-1q-3.54-1-6.43-1.93v32.61h-23zm23 55.42q4.5 3 13.34 3 8.5 0 13.41-5.7t4.9-15.18a29.58 29.58 0 00-.89-7.23 18.46 18.46 0 00-2.73-6.19 13.68 13.68 0 00-4.82-4.25 15.18 15.18 0 00-7.3-1.61 15.48 15.48 0 00-6.83 1.44 14.9 14.9 0 00-5 3.86 17 17 0 00-3.05 5.46 19.19 19.19 0 00-1 6.27zm139.57 11.72q-1.29.81-3.86 2.65a35.44 35.44 0 01-6.67 3.62 61.06 61.06 0 01-9.71 3.13 54.77 54.77 0 01-12.86 1.37 48 48 0 01-17.35-3 37.61 37.61 0 01-13.09-8.29 34.8 34.8 0 01-8.18-12.73 46.52 46.52 0 01-2.81-16.47 44.18 44.18 0 012.65-15.18 38.07 38.07 0 017.63-12.77 37.16 37.16 0 0112.21-8.75 39.18 39.18 0 0116.38-3.29 37.78 37.78 0 0116.06 3.19 33.06 33.06 0 0111.64 8.91 38.58 38.58 0 017.15 13.66 59.76 59.76 0 012.41 17.43v3.85h-53.65q.15 6.1 5.38 10.69t14.38 4.57q9 0 14.62-2.65a50.67 50.67 0 008.19-4.57zm-20.24-37.43a13.64 13.64 0 00-1-4.9 14.28 14.28 0 00-2.89-4.57 15.51 15.51 0 00-4.82-3.46 16.07 16.07 0 00-6.91-1.36 17.14 17.14 0 00-7.06 1.36 15.84 15.84 0 00-5.06 3.46 14.85 14.85 0 00-3.06 4.57 12.78 12.78 0 00-1 4.9zm35.01-29.71h22.17l.8 9.47a34.56 34.56 0 018-7.39q5.05-3.53 13.09-3.53a37 37 0 015.22.32 20.07 20.07 0 014.25 1.13l-3.69 20.4a27.65 27.65 0 00-8.35-1.13q-8.19 0-13.26 4.9t-5.06 13.9v37.27h-23.17zm63.13 0h22.17c.21 1.39.37 2.75.48 4.09s.22 2.71.32 4.1a24 24 0 019.48-7.15 30.17 30.17 0 0112-2.49A30.39 30.39 0 01843 146.74a37.49 37.49 0 016.26 12.37 50 50 0 012.09 14.37 43.33 43.33 0 01-3.53 18.16 37.62 37.62 0 01-9.16 12.69 37 37 0 01-12.66 7.39 43.28 43.28 0 01-14 2.41 35 35 0 01-9-1q-3.54-1-6.43-1.93v32.61h-23zm23 55.42q4.5 3 13.34 3 8.51 0 13.41-5.7t4.9-15.18a30.07 30.07 0 00-.88-7.23 18.67 18.67 0 00-2.74-6.19 13.74 13.74 0 00-4.81-4.25 15.25 15.25 0 00-7.31-1.61 15.48 15.48 0 00-6.83 1.44 14.9 14.9 0 00-5 3.86 17 17 0 00-3.05 5.46 19.19 19.19 0 00-1 6.27zM865 136.38h22.17l.8 9.47a34.56 34.56 0 018-7.39q5.06-3.53 13.09-3.53a37 37 0 015.22.32 20.32 20.32 0 014.26 1.13l-3.7 20.4a27.65 27.65 0 00-8.35-1.13q-8.19 0-13.25 4.9t-5.06 13.9v37.27H865zM921.57 174a41.27 41.27 0 013-15.67 39.54 39.54 0 018.27-12.77 38.16 38.16 0 0112.77-8.59 42.15 42.15 0 0116.47-3.13 41.49 41.49 0 0116.38 3.13 38.22 38.22 0 0112.69 8.59 39.56 39.56 0 018.28 12.77 42.8 42.8 0 010 31.33 38.86 38.86 0 01-21 21.44 40.64 40.64 0 01-16.38 3.22 41.29 41.29 0 01-16.47-3.22 39.11 39.11 0 01-12.77-8.67 39.54 39.54 0 01-8.27-12.77 41.18 41.18 0 01-2.97-15.66zm40.48 20.24a17.08 17.08 0 007.71-1.69 16.86 16.86 0 005.7-4.58 19.67 19.67 0 003.46-6.5 25.47 25.47 0 000-14.94 18.78 18.78 0 00-3.46-6.43 17.52 17.52 0 00-5.7-4.5 17.07 17.07 0 00-7.71-1.68 17.57 17.57 0 00-7.79 1.68 16.34 16.34 0 00-5.7 4.5 20.44 20.44 0 00-3.46 6.43 23.85 23.85 0 000 14.94 21.48 21.48 0 003.46 6.5 15.78 15.78 0 005.7 4.58 17.58 17.58 0 007.79 1.66zm59.95-39.71h-12.21v-18.15H1022v-3.86a32.88 32.88 0 012.65-13.81 27.73 27.73 0 017-9.56 28.77 28.77 0 019.88-5.62 35.67 35.67 0 0111.33-1.85 45.37 45.37 0 0112.37 1.77 30.36 30.36 0 0111.4 6.1q-2.4 3.69-4.9 7.31t-4.9 7.31a18.89 18.89 0 00-5.3-2.73 18.44 18.44 0 00-5.94-1 10.11 10.11 0 00-7.71 3.06q-2.89 3-2.89 8.67v4.18h17.83v18.15h-17.83v57.19h-23zM288.25 69.06L179.62 6.34a47.35 47.35 0 00-47.33 0L23.67 69.06A47.32 47.32 0 000 110.05v125.43a47.33 47.33 0 0023.67 41l108.62 62.71a47.3 47.3 0 0047.33 0l108.63-62.71a47.34 47.34 0 0023.66-41V110.05a47.33 47.33 0 00-23.66-40.99zm-83.49 146.39a37.07 37.07 0 01-12 11.85 56.67 56.67 0 01-17.07 7 83.21 83.21 0 01-19.5 2.3 103.87 103.87 0 01-30.33-4.34Q111.6 228 102.69 219l18.09-23.45a47 47 0 0015.42 8.92 52.72 52.72 0 0018.48 3.57 38.31 38.31 0 0013.51-2q5.35-2 5.35-7.9a8 8 0 00-1.14-4.2 10.64 10.64 0 00-4.21-3.57 52.86 52.86 0 00-8.54-3.44q-5.47-1.78-13.89-4.08a91.74 91.74 0 01-13.63-4.72 49.13 49.13 0 01-12-7.26 33.41 33.41 0 01-8.41-10.45 32.73 32.73 0 01.63-29.44A37.42 37.42 0 01123 119.24a50.37 50.37 0 0116-7.65 72.23 72.23 0 0120-2.67 93.28 93.28 0 0126.76 3.44 76 76 0 0121.15 10.06l-15.55 24.22a78.23 78.23 0 00-13.36-6.88 44.6 44.6 0 00-16.95-3.06q-8.4 0-12.23 2.42a7.39 7.39 0 00-3.82 6.5q0 5.87 7.9 8.66t21.41 6.38q18.34 5.1 26.63 14t8.28 23.7a31.59 31.59 0 01-4.46 17.09z" fill="#fa6484"/></svg>